<svg width="32" height="32" viewBox="0 0 32 32" fill="none" xmlns="http://www.w3.org/2000/svg">
<path d="M18.6664 28.0003H13.333M23.9997 10.667C23.9997 8.54526 23.1568 6.51043 21.6566 5.01014C20.1563 3.50985 18.1214 2.66699 15.9997 2.66699C13.878 2.66699 11.8431 3.50985 10.3428 5.01014C8.84255 6.51043 7.9997 8.54526 7.9997 10.667C7.9997 14.7872 6.96033 17.6083 5.79925 19.4742C4.81987 21.0482 4.33018 21.8351 4.34813 22.0547C4.36801 22.2978 4.41951 22.3905 4.6154 22.5358C4.79231 22.667 5.58982 22.667 7.18484 22.667H24.8146C26.4096 22.667 27.2071 22.667 27.384 22.5358C27.5799 22.3905 27.6314 22.2978 27.6513 22.0547C27.6692 21.8351 27.1795 21.0482 26.2001 19.4742C25.0391 17.6083 23.9997 14.7872 23.9997 10.667Z" stroke="black" stroke-width="2" stroke-linecap="round" stroke-linejoin="round"/>
</svg>
