<svg width="16" height="16" viewBox="0 0 16 16" fill="none" xmlns="http://www.w3.org/2000/svg">
<g clip-path="url(#clip0_2148_6354)">
<path d="M11.9994 6.66622L9.3327 3.99955M1.66602 14.3329L3.92226 14.0822C4.19792 14.0516 4.33575 14.0362 4.46458 13.9945C4.57888 13.9575 4.68765 13.9053 4.78794 13.8391C4.90099 13.7646 4.99905 13.6665 5.19517 13.4704L13.9994 4.66622C14.7357 3.92984 14.7357 2.73593 13.9994 1.99955C13.263 1.26317 12.0691 1.26317 11.3327 1.99955L2.5285 10.8037C2.33238 10.9999 2.23432 11.0979 2.15977 11.211C2.09364 11.3113 2.04136 11.42 2.00436 11.5343C1.96265 11.6632 1.94734 11.801 1.91671 12.0766L1.66602 14.3329Z" stroke="white" stroke-width="1.6" stroke-linecap="round" stroke-linejoin="round"/>
</g>
<defs>
<clipPath id="clip0_2148_6354">
<rect width="16" height="16" fill="white"/>
</clipPath>
</defs>
</svg>
